<svg width="32" height="32" viewBox="0 0 32 32" fill="none" xmlns="http://www.w3.org/2000/svg">
<path d="M23.0333 22.9999C23.611 22.9999 24.0999 22.7888 24.4999 22.3666C24.8999 21.9444 25.0999 21.4444 25.0999 20.8666C25.0999 20.2888 24.8999 19.7999 24.4999 19.3999C24.0999 18.9999 23.611 18.7999 23.0333 18.7999C22.4555 18.7999 21.9555 18.9999 21.5333 19.3999C21.111 19.7999 20.8999 20.2888 20.8999 20.8666C20.8999 21.4444 21.111 21.9444 21.5333 22.3666C21.9555 22.7888 22.4555 22.9999 23.0333 22.9999ZM22.9999 27.1666C23.7333 27.1666 24.3999 27.011 24.9999 26.6999C25.5999 26.3888 26.111 25.9444 26.5333 25.3666C25.9555 25.0555 25.3777 24.8222 24.7999 24.6666C24.2221 24.511 23.6221 24.4333 22.9999 24.4333C22.3777 24.4333 21.7721 24.511 21.1833 24.6666C20.5944 24.8222 20.0221 25.0555 19.4666 25.3666C19.8888 25.9444 20.3944 26.3888 20.9833 26.6999C21.5721 27.011 22.2444 27.1666 22.9999 27.1666ZM23.0999 29.3333C21.3666 29.3333 19.8888 28.7166 18.6666 27.4833C17.4444 26.2499 16.8333 24.7888 16.8333 23.0999C16.8333 21.3666 17.4444 19.8833 18.6666 18.6499C19.8888 17.4166 21.3666 16.7999 23.0999 16.7999C24.811 16.7999 26.2833 17.4166 27.5166 18.6499C28.7499 19.8833 29.3666 21.3666 29.3666 23.0999C29.3666 24.7888 28.7499 26.2499 27.5166 27.4833C26.2833 28.7166 24.811 29.3333 23.0999 29.3333ZM15.9999 29.2333H15.7499C15.6944 29.2333 15.611 29.211 15.4999 29.1666C12.6777 28.3222 10.2777 26.5444 8.29992 23.8333C6.32214 21.1222 5.33325 18.0444 5.33325 14.5999V8.03327C5.33325 7.61105 5.45547 7.22771 5.69992 6.88327C5.94436 6.53882 6.25547 6.28882 6.63325 6.13327L15.2999 2.89993C15.5444 2.81105 15.7777 2.7666 15.9999 2.7666C16.2221 2.7666 16.4555 2.81105 16.6999 2.89993L25.3666 6.13327C25.7444 6.28882 26.0555 6.53882 26.2999 6.88327C26.5444 7.22771 26.6666 7.61105 26.6666 8.03327V15.6333C26.3555 15.4777 26.0221 15.3388 25.6666 15.2166C25.311 15.0944 24.9777 15.011 24.6666 14.9666V8.03327L15.9999 4.83327L7.33325 8.03327V14.5999C7.33325 16.2888 7.60547 17.8444 8.14992 19.2666C8.69436 20.6888 9.38881 21.9388 10.2333 23.0166C11.0777 24.0944 12.011 24.9888 13.0333 25.6999C14.0555 26.411 15.0444 26.9222 15.9999 27.2333C16.1333 27.4999 16.3333 27.7999 16.5999 28.1333C16.8666 28.4666 17.0888 28.7222 17.2666 28.8999C17.0221 29.011 16.7944 29.0944 16.5833 29.1499C16.3721 29.2055 16.1777 29.2333 15.9999 29.2333Z" fill="white"/>
</svg>
