<svg width="32" height="32" viewBox="0 0 32 32" fill="none" xmlns="http://www.w3.org/2000/svg">
<path d="M5.91981 26.0804H7.36688L21.9363 11.511L20.4892 10.0639L5.91981 24.6333V26.0804ZM26.113 10.0968L21.9034 5.88717L23.2847 4.50587C23.6574 4.13314 24.1178 3.94678 24.666 3.94678C25.2141 3.94678 25.6745 4.13314 26.0472 4.50587L27.4943 5.95294C27.867 6.32567 28.0534 6.78611 28.0534 7.33424C28.0534 7.88237 27.867 8.3428 27.4943 8.71553L26.113 10.0968ZM24.7317 11.4781L8.15619 28.0537H3.94653V23.844L20.5221 7.26846L24.7317 11.4781ZM21.2127 10.7875L20.4892 10.0639L21.9363 11.511L21.2127 10.7875Z" fill="white"/>
</svg>
