<svg class="card-icone" width="32" height="32" viewBox="0 0 32 32" fill="none" xmlns="http://www.w3.org/2000/svg">
<path d="M21.6999 21.1C21.5 20.9 21.4 20.6556 21.4 20.3667C21.4 20.0778 21.5 19.8444 21.6999 19.6667L24.3666 17H13.7C13.4111 17 13.1722 16.9056 12.9833 16.7167C12.7944 16.5278 12.7 16.2889 12.7 16C12.7 15.7111 12.7944 15.4722 12.9833 15.2833C13.1722 15.0944 13.4111 15 13.7 15H24.3L21.5999 12.3C21.4222 12.1222 21.3333 11.8944 21.3333 11.6167C21.3333 11.3389 21.4333 11.1 21.6333 10.9C21.8333 10.7 22.0722 10.6 22.3499 10.6C22.6277 10.6 22.8666 10.7 23.0666 10.9L27.5 15.3333C27.6111 15.4444 27.6888 15.5556 27.7333 15.6667C27.7777 15.7778 27.8 15.9 27.8 16.0333C27.8 16.1667 27.7777 16.2889 27.7333 16.4C27.6888 16.5111 27.6111 16.6222 27.5 16.7333L23.0999 21.1333C22.9222 21.3111 22.6944 21.4 22.4166 21.4C22.1388 21.4 21.9 21.3 21.6999 21.1ZM6.19995 28C5.66662 28 5.19995 27.8 4.79995 27.4C4.39995 27 4.19995 26.5333 4.19995 26V6C4.19995 5.46667 4.39995 5 4.79995 4.6C5.19995 4.2 5.66662 4 6.19995 4H14.9C15.1888 4 15.4277 4.09444 15.6166 4.28333C15.8055 4.47222 15.9 4.71111 15.9 5C15.9 5.28889 15.8055 5.52778 15.6166 5.71667C15.4277 5.90556 15.1888 6 14.9 6H6.19995V26H14.9C15.1888 26 15.4277 26.0944 15.6166 26.2833C15.8055 26.4722 15.9 26.7111 15.9 27C15.9 27.2889 15.8055 27.5278 15.6166 27.7167C15.4277 27.9056 15.1888 28 14.9 28H6.19995Z" fill="white"/>
</svg>
