<svg width="33" height="32" viewBox="0 0 33 32" fill="none" xmlns="http://www.w3.org/2000/svg">
<path d="M16.5 18.6665C16.1222 18.6665 15.8056 18.5387 15.55 18.2832C15.2944 18.0276 15.1667 17.7109 15.1667 17.3332C15.1667 16.9554 15.2944 16.6387 15.55 16.3832C15.8056 16.1276 16.1222 15.9998 16.5 15.9998C16.8778 15.9998 17.1944 16.1276 17.45 16.3832C17.7056 16.6387 17.8333 16.9554 17.8333 17.3332C17.8333 17.7109 17.7056 18.0276 17.45 18.2832C17.1944 18.5387 16.8778 18.6665 16.5 18.6665ZM11.1667 18.6665C10.7889 18.6665 10.4722 18.5387 10.2167 18.2832C9.96111 18.0276 9.83333 17.7109 9.83333 17.3332C9.83333 16.9554 9.96111 16.6387 10.2167 16.3832C10.4722 16.1276 10.7889 15.9998 11.1667 15.9998C11.5444 15.9998 11.8611 16.1276 12.1167 16.3832C12.3722 16.6387 12.5 16.9554 12.5 17.3332C12.5 17.7109 12.3722 18.0276 12.1167 18.2832C11.8611 18.5387 11.5444 18.6665 11.1667 18.6665ZM21.8333 18.6665C21.4556 18.6665 21.1389 18.5387 20.8833 18.2832C20.6278 18.0276 20.5 17.7109 20.5 17.3332C20.5 16.9554 20.6278 16.6387 20.8833 16.3832C21.1389 16.1276 21.4556 15.9998 21.8333 15.9998C22.2111 15.9998 22.5278 16.1276 22.7833 16.3832C23.0389 16.6387 23.1667 16.9554 23.1667 17.3332C23.1667 17.7109 23.0389 18.0276 22.7833 18.2832C22.5278 18.5387 22.2111 18.6665 21.8333 18.6665ZM16.5 23.9998C16.1222 23.9998 15.8056 23.8721 15.55 23.6165C15.2944 23.3609 15.1667 23.0443 15.1667 22.6665C15.1667 22.2887 15.2944 21.9721 15.55 21.7165C15.8056 21.4609 16.1222 21.3332 16.5 21.3332C16.8778 21.3332 17.1944 21.4609 17.45 21.7165C17.7056 21.9721 17.8333 22.2887 17.8333 22.6665C17.8333 23.0443 17.7056 23.3609 17.45 23.6165C17.1944 23.8721 16.8778 23.9998 16.5 23.9998ZM11.1667 23.9998C10.7889 23.9998 10.4722 23.8721 10.2167 23.6165C9.96111 23.3609 9.83333 23.0443 9.83333 22.6665C9.83333 22.2887 9.96111 21.9721 10.2167 21.7165C10.4722 21.4609 10.7889 21.3332 11.1667 21.3332C11.5444 21.3332 11.8611 21.4609 12.1167 21.7165C12.3722 21.9721 12.5 22.2887 12.5 22.6665C12.5 23.0443 12.3722 23.3609 12.1167 23.6165C11.8611 23.8721 11.5444 23.9998 11.1667 23.9998ZM21.8333 23.9998C21.4556 23.9998 21.1389 23.8721 20.8833 23.6165C20.6278 23.3609 20.5 23.0443 20.5 22.6665C20.5 22.2887 20.6278 21.9721 20.8833 21.7165C21.1389 21.4609 21.4556 21.3332 21.8333 21.3332C22.2111 21.3332 22.5278 21.4609 22.7833 21.7165C23.0389 21.9721 23.1667 22.2887 23.1667 22.6665C23.1667 23.0443 23.0389 23.3609 22.7833 23.6165C22.5278 23.8721 22.2111 23.9998 21.8333 23.9998ZM6.5 29.3332C5.96667 29.3332 5.5 29.1332 5.1 28.7332C4.7 28.3332 4.5 27.8665 4.5 27.3332V6.6665C4.5 6.13317 4.7 5.6665 5.1 5.2665C5.5 4.8665 5.96667 4.6665 6.5 4.6665H8.66667V3.73317C8.66667 3.42206 8.76667 3.1665 8.96667 2.9665C9.16667 2.7665 9.42222 2.6665 9.73333 2.6665C10.0444 2.6665 10.3056 2.7665 10.5167 2.9665C10.7278 3.1665 10.8333 3.42206 10.8333 3.73317V4.6665H22.1667V3.73317C22.1667 3.42206 22.2667 3.1665 22.4667 2.9665C22.6667 2.7665 22.9222 2.6665 23.2333 2.6665C23.5444 2.6665 23.8056 2.7665 24.0167 2.9665C24.2278 3.1665 24.3333 3.42206 24.3333 3.73317V4.6665H26.5C27.0333 4.6665 27.5 4.8665 27.9 5.2665C28.3 5.6665 28.5 6.13317 28.5 6.6665V27.3332C28.5 27.8665 28.3 28.3332 27.9 28.7332C27.5 29.1332 27.0333 29.3332 26.5 29.3332H6.5ZM6.5 27.3332H26.5V12.9998H6.5V27.3332ZM6.5 10.9998H26.5V6.6665H6.5V10.9998ZM6.5 10.9998V6.6665V10.9998Z" fill="white"/>
</svg>
