<svg width="32" height="32" viewBox="0 0 32 32" fill="none" xmlns="http://www.w3.org/2000/svg">
<path d="M7.33325 26H12.3333V17.6667H19.6666V26H24.6666V13L15.9999 6.5L7.33325 13V26ZM7.33325 28C6.7777 28 6.30547 27.8056 5.91659 27.4167C5.5277 27.0278 5.33325 26.5556 5.33325 26V13C5.33325 12.6889 5.40547 12.3889 5.54992 12.1C5.69436 11.8111 5.88881 11.5778 6.13325 11.4L14.7999 4.9C14.9777 4.76667 15.1666 4.66667 15.3666 4.6C15.5666 4.53333 15.7777 4.5 15.9999 4.5C16.2221 4.5 16.4333 4.53333 16.6333 4.6C16.8333 4.66667 17.0221 4.76667 17.1999 4.9L25.8666 11.4C26.111 11.5778 26.3055 11.8111 26.4499 12.1C26.5944 12.3889 26.6666 12.6889 26.6666 13V26C26.6666 26.5556 26.4721 27.0278 26.0833 27.4167C25.6944 27.8056 25.2221 28 24.6666 28H17.6666V19.6667H14.3333V28H7.33325Z" fill="white"/>
</svg>
